# xmcd
# Copyright (C) 1995-1998 Ti Kan
#
# Track frame offsets:
#       150
#       14658
#       28105
#       44625
#       60948
#       77610
#       94270
#       106842
#       120300
#       133244
#       146728
#       163680
#       177048
#
# Disc length: 2597 seconds
#
# Revision: 0
# Processed by: cddbd v1.4PL0 Copyright (c) Steve Scherf et al.
# Submitted via: CD-Transfer v1.0
#
DISCID=ab0a230d
DTITLE=Ray Wilko - Daktari
DYEAR=2002
DGENRE=
TTITLE0=New Dimension
TTITLE1=Far Away From Me
TTITLE2=What Is Was
TTITLE3=Rocket Tv
TTITLE4=Get The Ladies
TTITLE5=Dubman
TTITLE6=Boarding Pass
TTITLE7=Brothers And Sisters
TTITLE8=Come On Down
TTITLE9=Legends
TTITLE10=Okay Days
TTITLE11=Think Tank
TTITLE12=It's A Dream
EXTD=
EXTT0=
EXTT1=
EXTT2=
EXTT3=
EXTT4=
EXTT5=
EXTT6=
EXTT7=
EXTT8=
EXTT9=
EXTT10=
EXTT11=
EXTT12=
PLAYORDER=
